{
    "asset": {
        "version": "2.0",
        "generator": "Open Asset Import Library (assimp v5.0.cd42b995)"
    },
    "extensionsUsed": [
        "FB_ngon_encoding"
    ],
    "accessors": [
        {
            "bufferView": 0,
            "byteOffset": 0,
            "componentType": 5126,
            "count": 24354,
            "type": "VEC3",
            "max": [
                3.9000000953674318,
                3.700000047683716,
                4.5
            ],
            "min": [
                -4.800000190734863,
                0.0,
                -4.199999809265137
            ]
        },
        {
            "bufferView": 1,
            "byteOffset": 0,
            "componentType": 5126,
            "count": 24354,
            "type": "VEC3",
            "max": [
                1.0,
                1.0,
                1.0
            ],
            "min": [
                -1.0,
                -1.0,
                -1.0
            ]
        },
        {
            "bufferView": 2,
            "byteOffset": 0,
            "componentType": 5126,
            "count": 24354,
            "type": "VEC2",
            "max": [
                0.9941409826278687,
                0.5
            ],
            "min": [
                0.00585938012227416,
                0.5
            ]
        },
        {
            "bufferView": 3,
            "byteOffset": 0,
            "componentType": 5125,
            "count": 55092,
            "type": "SCALAR",
            "max": [
                24353
            ],
            "min": [
                0
            ]
        }
    ],
    "buffers": [
        {
            "byteLength": 999696,
            "uri": "result.bin"
        }
    ],
    "bufferViews": [
        {
            "buffer": 0,
            "byteOffset": 0,
            "byteLength": 292248,
            "target": 34962
        },
        {
            "buffer": 0,
            "byteOffset": 292248,
            "byteLength": 292248,
            "target": 34962
        },
        {
            "buffer": 0,
            "byteOffset": 584496,
            "byteLength": 194832,
            "target": 34962
        },
        {
            "buffer": 0,
            "byteOffset": 779328,
            "byteLength": 220368,
            "target": 34963
        }
    ],
    "materials": [
        {
            "name": "DefaultMaterial",
            "pbrMetallicRoughness": {
                "baseColorFactor": [
                    0.6000000238418579,
                    0.6000000238418579,
                    0.6000000238418579,
                    1.0
                ],
                "metallicFactor": 0.0
            }
        },
        {
            "name": "palette",
            "pbrMetallicRoughness": {
                "baseColorFactor": [
                    0.6000000238418579,
                    0.6000000238418579,
                    0.6000000238418579,
                    1.0
                ],
                "metallicFactor": 0.0
            }
        }
    ],
    "meshes": [
        {
            "name": "defaultobject",
            "primitives": [
                {
                    "mode": 4,
                    "material": 1,
                    "indices": 3,
                    "attributes": {
                        "POSITION": 0,
                        "NORMAL": 1,
                        "TEXCOORD_0": 2
                    }
                }
            ]
        }
    ],
    "nodes": [
        {
            "name": "input.obj",
            "children": [
                1
            ]
        },
        {
            "name": "defaultobject",
            "mesh": 0
        }
    ],
    "scenes": [
        {
            "nodes": [
                0
            ]
        }
    ],
    "scene": 0
}