<svg width="746.00047" height="97.99937" viewBox="0 0 197.37929 25.929" xmlns="http://www.w3.org/2000/svg"><defs><pattern patternUnits="userSpaceOnUse" width="2" height="1" patternTransform="scale(10)" id="a"><path style="fill:#000;stroke:none" d="M0-.5h1v2H0z"/></pattern></defs><g aria-label="Thomas Luc" style="font-size:3.175px;fill:url(#a);stroke-width:.265" transform="translate(-6.2559 -37.19016)"><path d="M13.98173 62.69601V42.44656H6.2559v-3.95112h20.07307v3.95112h-7.76111V62.696zM29.50395 62.69601V37.19016h4.30389v9.0664h.24694q.59972-.74084 1.41111-1.30528.8114-.56444 1.83445-.88194 1.05833-.35278 2.32834-.35278 1.76388 0 3.10444.635 1.37584.635 2.15195 2.04611.7761 1.41111.7761 3.77473V62.696h-4.33916v-11.7475q0-.98778-.24695-1.62278-.21166-.67028-.67027-1.05834-.42334-.42333-1.05834-.59972-.635-.17639-1.41111-.17639-1.16417 0-2.11667.56445-.91722.56444-1.48167 1.55222-.52916.98778-.52916 2.29306v10.795zM58.36117 63.11935q-3.03389 0-5.08-1.02306-2.04611-1.05833-3.06917-3.21028-1.02306-2.15194-1.02306-5.46806 0-3.35139 1.02306-5.46806 1.02306-2.15194 3.06917-3.175 2.04611-1.05833 5.08-1.05833 3.06917 0 5.08 1.05833 2.04612 1.02306 3.06918 3.175 1.02305 2.11667 1.02305 5.46806 0 3.31612-1.02305 5.46806-1.02306 2.15195-3.06917 3.21028-2.01084 1.02306-5.08 1.02306zm0-3.52778q1.69334 0 2.7164-.635 1.05833-.67028 1.51694-1.97556.49389-1.34056.49389-3.31611v-.4939q0-1.97555-.49389-3.28083-.45861-1.34055-1.51695-1.97555-1.02305-.67028-2.71639-.67028-1.69333 0-2.75167.67028-1.02305.635-1.51694 1.97555-.45861 1.30528-.45861 3.28084v.49389q0 1.97555.4586 3.31611.4939 1.30528 1.51695 1.97556 1.05834.635 2.75167.635zM71.20228 62.69601V44.1399h3.59833l.35278 2.46945h.24694q.59973-.84667 1.37584-1.48167.77611-.67028 1.76389-1.02306 1.02305-.38805 2.2225-.38805 1.62278 0 2.89278.67028 1.27.67027 1.97556 2.2225h.24694q.59972-.84667 1.41111-1.48167.8114-.67028 1.86973-1.02306 1.05833-.38805 2.29305-.38805 1.65806 0 2.92806.59972 1.27.59972 2.01084 1.97556.74083 1.37583.74083 3.66889V62.696h-4.3039V50.84267q0-.9525-.21166-1.5875-.21167-.67028-.59972-1.02305-.35278-.38806-.91723-.56445-.52916-.17639-1.16416-.17639-1.02306 0-1.83445.56445-.81139.56444-1.30528 1.55222-.4586.98778-.4586 2.29306v10.795h-4.3039V50.84267q0-.9525-.21167-1.5875-.21166-.67028-.59972-1.02305-.35278-.38806-.91722-.56445-.52917-.17639-1.16417-.17639-1.02306 0-1.86972.56445-.8114.56444-1.30528 1.55222-.45861.98778-.45861 2.29306v10.795zM106.33897 63.11935q-.77611 0-1.79917-.21167-.98778-.17639-1.94028-.70555-.91722-.52917-1.51694-1.55223-.59973-1.05833-.59973-2.75167 0-1.905.84667-3.13972.84667-1.27 2.36361-1.97556 1.55223-.74083 3.6689-1.02305 2.15194-.3175 4.69194-.3175v-1.51695q0-.81139-.24694-1.44639-.24695-.635-.91722-.98778-.635-.38805-1.94028-.38805t-2.04612.3175q-.74083.3175-1.02305.7761-.28222.45862-.28222.9525v.4939h-4.16278q-.0353-.1764-.0353-.35278v-.42333q0-1.5875.9525-2.75167t2.64583-1.7639q1.69334-.635 3.91584-.635 2.54 0 4.16278.70556 1.65806.70556 2.46945 2.01084.81139 1.30528.81139 3.175v8.7489q0 .67027.38805.9525.38806.28222.84667.28222h1.12889v2.96333q-.35278.14111-1.02306.3175-.67028.21167-1.65805.21167-.91723 0-1.65806-.3175-.70556-.28222-1.19945-.84667-.49389-.56444-.70555-1.34055h-.21167q-.59972.74083-1.44639 1.34055-.81139.56445-1.94028.88195-1.09361.3175-2.54.3175zm1.30528-3.52778q1.05833 0 1.86972-.3175.84667-.3175 1.37584-.88195.56444-.56444.84666-1.37583.3175-.8114.3175-1.7639v-.84666q-1.94028 0-3.59833.24695-1.62278.24694-2.61056.91722-.9525.67028-.9525 1.905 0 .635.28222 1.12889.3175.45861.91723.74083.635.24695 1.55222.24695zM128.42286 63.11935q-2.01083 0-3.52778-.42334-1.51694-.4586-2.54-1.23472-1.02305-.77611-1.55222-1.79917-.49389-1.05833-.49389-2.29305v-.3175q.0353-.14111.0353-.21167h4.23333v.28222q.0353.9525.59973 1.55223.56444.56444 1.48166.81138.91723.24695 1.94028.24695.91723 0 1.72862-.17639.84666-.21167 1.37583-.635.56444-.45861.56444-1.16417 0-.91722-.70555-1.41111-.70556-.49389-1.86972-.81139-1.12889-.3175-2.43417-.67028-1.16417-.3175-2.32834-.70555-1.16417-.38806-2.11667-.98778-.91722-.59973-1.51694-1.55223-.56445-.9525-.56445-2.3636 0-1.37584.59973-2.3989.59972-1.02306 1.65805-1.69333 1.05834-.70556 2.50473-1.05834 1.44639-.35278 3.13972-.35278 1.65806 0 2.99861.35278 1.37584.35278 2.36362 1.02306 1.02305.635 1.55222 1.5875.56445.91722.56445 2.04611 0 .24695-.0353.4939v.28221h-4.19806v-.24694q0-.67028-.42333-1.12889-.38806-.49389-1.16417-.77611-.74084-.28222-1.86973-.28222-.84666 0-1.48166.1411-.635.14112-1.05834.38806-.38805.24695-.59972.56445-.21167.3175-.21167.70555 0 .67028.52917 1.05834.52917.38805 1.41111.67028.91723.28222 1.97556.59972 1.27.35278 2.61056.74083 1.34055.35278 2.46944.91723 1.16417.56444 1.86973 1.5875.70555 1.02305.70555 2.71639 0 1.62278-.635 2.78694-.59972 1.1289-1.72861 1.83445-1.09361.67028-2.61056.98778-1.48167.3175-3.24556.3175zM147.71986 62.69601V38.49544h4.58611v20.21418h12.13556v3.9864zM173.33153 63.11935q-2.68111 0-4.37445-1.4464-1.65805-1.48166-1.65805-5.00944V44.13989h4.30389v11.7475q0 .98779.21166 1.65806.24695.635.67028 1.05834.45861.38806 1.09361.56444.635.1764 1.41112.1764 1.16416 0 2.08139-.56445.9525-.56445 1.48166-1.55222.56445-1.02306.56445-2.29306v-10.795h4.30389V62.696h-3.56306l-.35277-2.46944h-.24695q-.635.84667-1.51694 1.51694-.84667.635-1.97556.98778-1.09361.38806-2.43417.38806zM195.73295 63.11935q-2.89278 0-4.83306-1.02306-1.905-1.05833-2.8575-3.21028-.9525-2.15194-.9525-5.46806 0-3.35139.9525-5.46806.98777-2.15194 2.89278-3.175 1.94027-1.05833 4.79778-1.05833 1.86972 0 3.31611.4586 1.44639.45862 2.46945 1.41112 1.05833.91722 1.5875 2.29306.52916 1.37583.52916 3.21028h-4.37444q0-1.30528-.38806-2.15195-.38806-.84666-1.19944-1.27-.77612-.45861-2.01084-.45861-1.44639 0-2.36361.67028-.91722.67028-1.37584 2.01083-.42333 1.30528-.42333 3.31612v.4586q0 1.97556.42333 3.31612.45862 1.34056 1.41112 2.01084.9525.635 2.50472.635 1.19945 0 1.97556-.42334.81139-.4586 1.23472-1.34055.42333-.88195.42333-2.11667h4.16278q0 1.72861-.52916 3.10444-.52917 1.37584-1.55223 2.32834-1.02305.9525-2.50472 1.44639-1.44639.49389-3.31611.49389z" style="font-weight:600;font-size:35.2778px;font-family:Archivo;-inkscape-font-specification:'Archivo, Semi-Bold';stroke:#a7bc5b;fill:#ffffff"/></g></svg>