<svg id="intro-scroll-svg" width="24.90002" height="186.40873" viewBox="0 0 6.58813 49.32064">
  <g id="layer1" transform="translate(-95.756 -90.3165)">
    <g id="text682" fill="#56642a" stroke-width=".26458" aria-label="scroll down" transform="rotate(90 99.05007 114.97683)">
      <path id="path2859" d="M76.2771 118.27088q-.57326 0-1.08479-.15875-.51153-.16757-.80257-.41451l.28223-.49389q.28222.21167.72319.37042.44097.14993.92604.14993.66146 0 .9525-.20285.29104-.21167.29104-.55563 0-.25576-.16757-.39687-.15875-.14993-.42333-.22049-.26458-.0794-.5909-.13229-.32632-.0529-.65264-.12347-.3175-.0706-.58208-.20285-.26459-.14111-.43216-.37923-.15875-.23813-.15875-.635 0-.37924.21167-.6791t.61736-.46743q.41451-.17639 1.00542-.17639.44979 0 .89958.12347.4498.11466.74083.30868l-.2734.50271q-.30868-.21167-.66146-.29986-.35278-.097-.70555-.097-.62618 0-.92604.22048-.29105.21167-.29105.54681 0 .26458.15875.41451.16757.14993.43216.23813.2734.0794.5909.13229.32632.0529.64382.13229.32632.0705.5909.20285.2734.12347.43215.36159.16757.22931.16757.60854 0 .4057-.2293.70556-.22049.29104-.65264.45861-.42333.15875-1.03188.15875z"/>
      <path id="path2861" d="M81.2601 118.27088q-.68792 0-1.23473-.29986-.53798-.30868-.84666-.83785-.30868-.53798-.30868-1.2259 0-.69673.30868-1.2259t.84666-.82903q.5468-.29986 1.23473-.29986.5909 0 1.06715.22931.47625.2293.74965.68791l-.46743.3175q-.23813-.35278-.5909-.52034-.35278-.16757-.7673-.16757-.49388 0-.89076.2293-.39687.22049-.62618.62618-.2293.4057-.2293.9525 0 .54681.2293.9525t.62618.635q.39688.22049.89077.22049.41451 0 .76729-.16757.35278-.16757.5909-.51153l.46743.3175q-.2734.44979-.74965.68792-.47625.2293-1.06715.2293z"/>
      <path id="path2863" d="M84.3028 118.22678v-4.6302h.59972v1.26118l-.06174-.22049q.19403-.52916.65264-.80257.45861-.28222 1.1377-.28222v.60854h-.07055q-.03528-.009-.07055-.009-.73201 0-1.14653.44979-.41451.44098-.41451 1.26118v2.36361z"/>
      <path id="path2865" d="M89.61445 118.27088q-.67028 0-1.20827-.29986-.52917-.30868-.83785-.83785-.30868-.53798-.30868-1.2259 0-.69673.30869-1.2259.30868-.52917.83784-.82903.52917-.29986 1.20827-.29986.68791 0 1.21708.29986.53798.29986.83784.82903.30869.52917.30869 1.2259 0 .68792-.30869 1.2259-.29986.52917-.83784.83785-.53799.29986-1.21708.29986zm0-.55562q.5027 0 .89076-.22049.38805-.22931.60854-.635.2293-.41451.2293-.9525 0-.5468-.2293-.9525-.22049-.40569-.60854-.62618-.38806-.2293-.88195-.2293-.49388 0-.88194.2293-.38805.22049-.61736.62618-.2293.4057-.2293.9525 0 .53799.2293.9525.2293.40569.61736.635.38806.22049.87313.22049z"/>
      <path id="path2867" d="M93.25688 118.22678v-6.54402h.62618v6.54402z"/>
      <path id="path2869" d="M95.6293 118.22678v-6.54402h.62618v6.54402z"/>
      <path id="path2871" d="M102.15567 118.27088q-.66146 0-1.19062-.29986-.52035-.29986-.82021-.82903-.29986-.53798-.29986-1.23472 0-.70555.29986-1.23472t.82021-.82021q.52916-.29986 1.19062-.29986.60854 0 1.08479.2734.48507.27341.7673.80257.29104.52035.29104 1.27882 0 .74965-.28223 1.27882-.28222.52917-.76729.81139-.47625.2734-1.09361.2734zm.0441-.55562q.49389 0 .88194-.22049.39688-.22931.61736-.635.22931-.41451.22931-.9525 0-.5468-.22931-.9525-.22048-.40569-.61736-.62618-.38805-.2293-.88194-.2293-.48507 0-.87312.2293-.38806.22049-.61737.62618-.2293.4057-.2293.9525 0 .53799.2293.9525.22931.40569.61737.635.38805.22049.87312.22049zm1.74625.51152v-1.39347l.0617-.93486-.0882-.93486v-3.28083h.62618v6.54402z"/>
      <path id="path2873" d="M108.17935 118.27088q-.67028 0-1.20827-.29986-.52916-.30868-.83784-.83785-.30868-.53798-.30868-1.2259 0-.69673.30868-1.2259t.83784-.82903q.52917-.29986 1.20827-.29986.68791 0 1.21708.29986.53798.29986.83785.82903.30868.52917.30868 1.2259 0 .68792-.30868 1.2259-.29987.52917-.83785.83785-.53799.29986-1.21708.29986zm0-.55562q.5027 0 .89076-.22049.38805-.22931.60854-.635.22931-.41451.22931-.9525 0-.5468-.22931-.9525-.22049-.40569-.60854-.62618-.38806-.2293-.88194-.2293-.49389 0-.88195.2293-.38805.22049-.61736.62618-.2293.4057-.2293.9525 0 .53799.2293.9525.22931.40569.61736.635.38806.22049.87313.22049z"/>
      <path id="path2875" d="m112.63318 118.22678-1.74625-4.6302h.59972l1.5875 4.29507h-.2734l1.63159-4.29507h.53799l1.61396 4.29507h-.27341l1.61396-4.29507h.57326l-1.75506 4.6302h-.59091l-1.55222-4.0393h.18521l-1.56104 4.0393z"/>
      <path id="path2877" d="M121.80539 113.55248q.56445 0 .98778.22049.43215.21166.67028.65264.24694.44097.24694 1.11124v2.68993h-.62618v-2.62819q0-.73201-.37042-1.10243-.36159-.37924-1.02305-.37924-.49389 0-.86431.20285-.36159.19403-.56444.57327-.19403.37041-.19403.89958v2.43416h-.62618v-4.6302h.59972v1.27l-.097-.23813q.22049-.50271.70555-.78493.48507-.29104 1.15535-.29104z"/>
    </g>
  </g>
</svg>
