<svg width="46" height="40" viewBox="0 0 46 40" fill="none" xmlns="http://www.w3.org/2000/svg">
<path d="M37.3183 22.0733L24.1667 35.2033V39.6667H28.63L41.76 26.515L37.3183 22.0733ZM45.1833 21.4233L42.41 18.65C42.3058 18.5349 42.1788 18.4427 42.037 18.3793C41.8953 18.3159 41.7419 18.2826 41.5867 18.2817C41.2617 18.3033 40.9583 18.4117 40.7417 18.65L38.575 20.8167L43.0167 25.15L45.1833 22.9833C45.595 22.55 45.595 21.8567 45.1833 21.4233ZM19.8333 31H4.66666V9.33333L22 20.1667L39.3333 9.33333V13.6667H43.6667V5C43.6667 2.61666 41.7167 0.666664 39.3333 0.666664H4.66666C2.28333 0.666664 0.333328 2.61666 0.333328 5V31C0.333328 33.3833 2.28333 35.3333 4.66666 35.3333H19.8333V31ZM39.3333 5L22 15.8333L4.66666 5H39.3333Z" fill="#56642A"/>
</svg>
