<svg width="46" height="46" viewBox="0 0 46 46" fill="none" xmlns="http://www.w3.org/2000/svg">
<path fill-rule="evenodd" clip-rule="evenodd" d="M0.0833288 3.9125C0.0833288 2.89694 0.486758 1.92298 1.20487 1.20487C1.92297 0.486762 2.89694 0.0833334 3.9125 0.0833334H42.0833C42.5866 0.0825114 43.0851 0.180964 43.5503 0.373056C44.0155 0.565147 44.4382 0.847104 44.7943 1.20278C45.1503 1.55846 45.4327 1.98088 45.6253 2.44585C45.8179 2.91083 45.9169 3.40922 45.9167 3.9125V42.0833C45.9172 42.5867 45.8185 43.0853 45.6262 43.5505C45.4339 44.0156 45.1517 44.4384 44.7959 44.7944C44.44 45.1504 44.0175 45.4328 43.5524 45.6254C43.0873 45.818 42.5888 45.9169 42.0854 45.9167H3.9125C3.40947 45.9167 2.91137 45.8176 2.44666 45.625C1.98194 45.4324 1.55973 45.1502 1.20413 44.7944C0.848531 44.4386 0.56652 44.0162 0.374209 43.5514C0.181898 43.0866 0.0830551 42.5884 0.0833288 42.0854V3.9125ZM18.225 17.5583H24.4312V20.675C25.3271 18.8833 27.6187 17.2708 31.0625 17.2708C37.6646 17.2708 39.2292 20.8396 39.2292 27.3875V39.5167H32.5479V28.8792C32.5479 25.15 31.6521 23.0458 29.3771 23.0458C26.2208 23.0458 24.9083 25.3146 24.9083 28.8792V39.5167H18.225V17.5583ZM6.76666 39.2312H13.45V17.2708H6.76666V39.2292V39.2312ZM14.4062 10.1083C14.4188 10.6806 14.317 11.2496 14.1067 11.7819C13.8965 12.3143 13.582 12.7992 13.1817 13.2084C12.7815 13.6176 12.3035 13.9427 11.7759 14.1646C11.2484 14.3865 10.6817 14.5009 10.1094 14.5009C9.537 14.5009 8.97039 14.3865 8.4428 14.1646C7.91521 13.9427 7.43726 13.6176 7.03701 13.2084C6.63676 12.7992 6.32227 12.3143 6.112 11.7819C5.90172 11.2496 5.79989 10.6806 5.8125 10.1083C5.83723 8.98511 6.3008 7.91623 7.10392 7.1306C7.90705 6.34496 8.98588 5.90504 10.1094 5.90504C11.2329 5.90504 12.3117 6.34496 13.1148 7.1306C13.9179 7.91623 14.3815 8.98511 14.4062 10.1083V10.1083Z" fill="#56642A"/>
</svg>
